<?xml version="1.0" standalone="no"?>
<!DOCTYPE svg PUBLIC "-//W3C//DTD SVG 20010904//EN"
 "http://www.w3.org/TR/2001/REC-SVG-20010904/DTD/svg10.dtd">
<svg version="1.0" xmlns="http://www.w3.org/2000/svg"
 width="1084.000000pt" height="994.000000pt" viewBox="0 0 1084.000000 994.000000"
 preserveAspectRatio="xMidYMid meet">

<g transform="translate(0.000000,994.000000) scale(0.100000,-0.100000)"
fill="#000000" stroke="none">
<path d="M0 4970 l0 -4970 5420 0 5420 0 0 4970 0 4970 -5420 0 -5420 0 0
-4970z m5359 4769 c367 -45 602 -112 911 -261 185 -89 365 -200 525 -325 70
-55 303 -285 362 -358 94 -117 226 -338 250 -420 74 -250 93 -386 93 -669 0
-243 -13 -356 -65 -552 -38 -139 -144 -402 -167 -412 -5 -2 -8 -9 -8 -16 0 -7
-13 -30 -30 -52 -16 -21 -30 -43 -30 -48 0 -9 -56 -89 -133 -189 -61 -80 -55
-71 -108 -152 -26 -38 -58 -93 -73 -122 l-26 -52 0 -1286 c0 -707 -4 -1285 -8
-1285 -5 0 -69 60 -143 133 -74 72 -166 156 -203 185 -56 44 -74 66 -99 120
l-32 67 2 1278 c1 704 4 1282 7 1285 3 3 14 -3 25 -12 18 -16 20 -16 35 6 9
12 16 29 16 36 0 17 99 313 110 327 4 6 29 51 55 100 26 50 79 134 117 187 38
54 85 133 103 177 81 191 84 454 9 679 -34 100 -197 328 -305 427 -73 66 -147
125 -157 125 -5 0 -17 9 -27 20 -22 24 -278 151 -360 178 -117 39 -241 71
-340 87 -55 8 -129 21 -165 28 -38 7 -155 12 -280 12 -196 0 -227 -3 -350 -28
-74 -15 -144 -32 -155 -36 -11 -5 -56 -23 -100 -41 -241 -97 -456 -298 -576
-541 -28 -56 -82 -205 -107 -294 -35 -124 -62 -372 -62 -561 0 -207 34 -513
85 -754 8 -36 17 -81 21 -100 4 -23 24 -51 58 -85 29 -27 94 -90 144 -139 l92
-89 -1 -681 c-1 -374 -5 -967 -8 -1316 l-6 -635 -20 22 c-11 12 -58 60 -105
106 -79 78 -112 108 -235 210 -47 40 -95 120 -95 159 0 26 -16 87 -28 105 -15
24 -205 47 -517 63 -368 19 -707 -26 -955 -128 -251 -103 -444 -303 -521 -542
-40 -126 -50 -303 -25 -429 48 -238 203 -486 400 -643 100 -79 250 -140 394
-159 50 -7 92 -16 92 -21 0 -13 -161 -9 -218 6 -117 32 -246 109 -354 212
-164 158 -255 302 -325 513 -29 90 -36 124 -40 226 -6 127 -2 153 45 330 59
223 66 315 18 244 -37 -55 -76 -138 -108 -229 -28 -78 -31 -99 -35 -244 -4
-152 -13 -203 -34 -191 -15 10 -11 339 5 430 17 94 51 226 72 275 34 78 100
199 142 259 46 65 167 193 232 245 134 108 322 204 535 274 125 41 275 70 451
86 84 8 160 18 170 24 11 5 35 12 55 16 81 15 69 32 -186 251 -44 38 -102 90
-130 116 -68 65 -101 89 -117 89 -13 0 -78 -24 -173 -65 -29 -12 -164 -62
-415 -154 -249 -92 -387 -156 -572 -267 -357 -215 -623 -467 -815 -775 -35
-55 -63 -106 -63 -113 0 -6 -4 -16 -9 -21 -11 -13 -78 -182 -96 -243 -39 -134
-49 -218 -49 -387 1 -248 31 -382 136 -605 102 -217 324 -451 548 -579 121
-69 313 -144 440 -172 189 -40 260 -49 410 -49 175 0 293 16 410 57 231 79
399 195 563 388 32 37 42 29 21 -16 -66 -135 -217 -281 -367 -353 -155 -75
-265 -105 -458 -126 -130 -14 -386 7 -549 44 -426 98 -803 349 -967 644 -35
63 -95 161 -160 260 -15 24 -33 52 -39 63 -6 11 -21 30 -33 43 -11 12 -21 26
-21 32 -1 5 -16 27 -36 48 -31 36 -36 38 -49 25 -14 -14 -14 -20 0 -55 28 -68
87 -187 119 -238 l30 -49 -21 -14 c-18 -12 -20 -19 -11 -49 9 -35 32 -77 76
-144 12 -19 71 -84 131 -145 60 -60 116 -125 126 -144 23 -45 44 -67 78 -80
24 -9 39 -41 20 -41 -37 0 -355 325 -430 439 -20 31 -39 58 -42 61 -7 6 -48
67 -87 130 -28 45 -77 143 -106 210 -8 19 -25 58 -37 85 -47 110 -99 318 -121
485 -18 135 -8 437 18 556 24 112 80 270 140 394 44 93 146 270 184 320 113
148 157 200 252 295 188 187 403 338 671 473 136 68 244 112 426 173 85 28
206 71 270 95 64 24 121 44 126 44 6 0 16 6 22 14 10 12 -3 32 -68 109 -347
403 -455 752 -320 1034 101 211 332 330 575 295 166 -23 247 -74 469 -292 94
-92 238 -234 321 -316 165 -163 205 -219 255 -361 35 -98 37 -173 10 -285 -45
-182 -143 -321 -326 -461 -65 -49 -198 -130 -232 -141 -55 -18 -49 -26 176
-249 189 -188 222 -217 249 -217 30 0 164 44 186 61 105 80 163 179 168 284 1
33 1 332 0 665 l-2 605 -82 74 c-228 205 -375 415 -506 721 -52 121 -96 317
-114 502 -18 192 0 380 59 613 76 302 215 544 433 751 249 238 656 419 1065
474 44 6 100 15 125 19 68 12 512 12 609 0z m1983 -3666 c37 -55 115 -173 327
-493 l96 -145 5 -1525 5 -1525 305 -2 c168 -1 584 -7 925 -13 553 -10 636 -10
770 5 159 17 338 57 470 104 93 34 252 108 260 122 4 5 15 9 26 9 22 0 22 -6
-3 -113 -13 -52 -16 -55 -173 -185 -200 -164 -305 -232 -420 -271 -132 -44
-264 -53 -590 -41 -508 18 -1242 40 -1410 43 l-160 2 -3 -49 c-2 -27 0 -52 5
-57 4 -4 179 -10 388 -13 1416 -19 1415 -19 1540 -2 200 26 364 75 529 158
l99 49 -7 -62 c-10 -90 -13 -93 -226 -256 -190 -145 -256 -179 -414 -209 -77
-14 -129 -16 -360 -11 -325 8 -755 21 -1193 38 -177 6 -332 9 -345 6 l-23 -6
3 -213 c2 -145 -1 -208 -8 -198 -5 8 -10 11 -10 5 0 -5 -15 17 -33 50 -73 133
-225 361 -309 462 -42 51 -81 136 -109 238 -12 42 -14 386 -15 2100 0 1128 1
2054 4 2058 5 11 7 9 54 -60z m-2057 -173 c3 -5 17 -10 31 -10 48 0 139 -69
172 -130 17 -33 22 -58 22 -117 0 -41 -5 -84 -11 -95 -16 -30 5 -94 47 -141
29 -31 34 -44 34 -86 0 -37 6 -56 24 -78 28 -33 97 -220 103 -280 5 -39 3 -44
-23 -53 -37 -14 -66 14 -96 93 -25 63 -39 77 -63 57 -18 -15 -20 -87 -4 -175
9 -47 9 -70 0 -95 l-11 -33 22 19 c13 10 33 28 45 39 27 25 72 47 143 69 50
16 58 16 85 2 17 -9 35 -16 40 -16 23 -1 50 -56 49 -101 -1 -54 -46 -135 -98
-174 -47 -35 -104 -65 -126 -65 -10 0 -25 -7 -34 -15 -8 -8 -22 -15 -30 -15
-9 0 -35 -14 -59 -31 -33 -24 -49 -30 -76 -25 -33 5 -33 5 -16 -14 10 -11 25
-20 33 -20 14 0 64 32 90 57 7 7 22 13 32 13 10 0 22 5 25 10 3 6 15 10 26 10
21 0 26 2 107 44 30 16 58 24 62 20 5 -5 10 -24 12 -43 4 -49 25 -58 79 -33
24 11 56 29 71 38 15 10 29 16 32 13 11 -10 28 -155 24 -198 -10 -100 -68
-165 -177 -198 -31 -9 -60 -20 -65 -24 -4 -4 3 -21 15 -39 21 -27 24 -43 24
-115 0 -47 -5 -89 -11 -95 -7 -7 -24 -3 -58 16 -50 28 -76 22 -76 -17 0 -27
-15 -31 -57 -14 -21 9 -58 23 -83 32 -24 8 -58 26 -76 39 -17 13 -38 24 -47
24 -8 0 -40 -27 -70 -60 -29 -33 -57 -60 -62 -60 -4 0 -34 27 -67 60 -32 33
-66 60 -74 60 -9 0 -27 -9 -40 -19 -14 -11 -49 -27 -77 -37 -29 -9 -69 -25
-90 -36 -39 -20 -57 -17 -57 8 0 26 -29 27 -74 0 -25 -14 -47 -26 -49 -26 -11
0 -29 140 -23 174 4 20 21 52 38 72 36 41 33 45 -48 63 -70 16 -142 65 -168
116 -15 29 -21 59 -21 110 0 74 21 185 35 185 4 0 37 -17 71 -39 35 -21 70
-36 76 -34 7 3 15 20 19 39 8 45 16 48 59 24 56 -31 61 -24 15 23 -23 23 -53
65 -67 94 -21 46 -23 57 -13 93 6 22 24 54 40 70 24 24 38 30 74 30 37 0 53
-7 95 -40 28 -22 52 -40 55 -40 2 0 7 28 10 63 3 34 8 94 12 134 6 65 4 72
-14 82 -24 13 -23 15 -69 -82 -18 -37 -39 -70 -46 -73 -21 -8 -67 13 -67 31 0
22 -18 18 -25 -5 -8 -24 -46 -35 -73 -21 -26 14 -62 89 -62 128 0 17 7 37 16
44 14 11 20 10 40 -14 14 -16 24 -41 24 -58 0 -19 5 -29 15 -29 10 0 15 10 15
30 0 17 5 30 10 30 6 0 13 -13 17 -30 7 -39 29 -39 37 0 3 17 17 56 32 88 20
44 23 61 15 74 -11 18 -5 48 10 48 21 0 42 53 40 100 -1 44 3 54 34 89 47 52
59 94 39 134 -22 42 -22 153 1 197 36 70 66 101 94 97 14 -2 20 -2 14 0 -7 3
-13 8 -13 13 0 13 60 40 89 40 14 0 33 5 41 10 19 12 27 12 35 0z m-470 -390
c3 -5 1 -10 -4 -10 -6 0 -11 5 -11 10 0 6 2 10 4 10 3 0 8 -4 11 -10z m-54
-33 c10 10 16 9 31 -3 16 -15 19 -15 43 0 22 15 26 15 31 2 10 -25 -5 -36 -48
-36 -59 0 -118 20 -118 40 0 28 11 30 31 7 14 -18 20 -19 30 -10z m1119 -7 c0
-31 -104 -63 -152 -47 -49 16 -33 33 34 34 33 1 66 7 72 13 13 13 46 13 46 0z
m-1105 -110 c31 -32 65 -40 65 -15 0 23 19 18 52 -16 41 -41 28 -55 -41 -40
-56 12 -85 32 -107 74 -19 36 -5 34 31 -3z m1038 -34 c-23 -32 -47 -44 -106
-55 -59 -11 -68 1 -31 40 31 32 49 37 58 14 8 -22 22 -19 58 14 37 33 49 25
21 -13z m51 -232 c9 -3 16 -16 16 -28 0 -40 -35 -119 -61 -138 -25 -19 -28
-19 -58 -4 -26 14 -31 22 -31 54 0 67 9 84 40 77 22 -5 29 -1 38 20 12 25 27
30 56 19z m786 -4193 c14 -10 41 -26 60 -36 45 -22 79 -63 80 -94 0 -15 -19
-46 -51 -83 -49 -56 -50 -60 -33 -74 61 -48 57 -47 114 -9 78 53 97 55 133 15
l30 -34 -30 -25 c-17 -14 -45 -38 -64 -52 l-34 -26 30 -38 c62 -77 60 -73 35
-100 -37 -39 -69 -32 -113 25 -21 28 -43 50 -47 50 -5 0 -35 -12 -67 -27 -114
-52 -183 -64 -233 -38 -37 19 -50 43 -50 95 0 53 19 94 67 149 l40 45 -39 62
c-34 54 -38 66 -32 102 5 34 15 46 61 80 61 45 93 47 143 13z m-4832 3 c27 -8
30 -49 5 -63 -10 -5 -67 -12 -126 -16 l-109 -8 7 -55 c11 -88 6 -85 109 -77
79 6 94 5 105 -9 21 -25 3 -36 -74 -47 -112 -16 -115 -17 -115 -53 0 -17 3
-48 6 -68 l7 -38 111 0 c120 0 148 -8 130 -37 -15 -23 -120 -43 -271 -50
l-123 -5 0 256 0 256 98 0 c53 0 117 4 142 9 60 11 71 12 98 5z m1373 -4 c24
-13 25 -46 2 -59 -10 -5 -67 -12 -126 -16 l-109 -8 7 -55 c11 -88 8 -85 95
-78 42 4 89 4 104 0 51 -13 19 -54 -43 -54 -16 0 -53 -5 -81 -11 -47 -10 -50
-12 -50 -42 0 -18 3 -49 6 -69 l7 -38 111 0 c120 0 148 -8 130 -37 -15 -23
-120 -43 -271 -50 l-123 -5 0 256 c0 198 3 256 13 257 6 0 50 0 97 0 47 0 105
4 130 8 65 12 79 12 101 1z m1557 4 c25 -7 31 -45 10 -62 -7 -5 -64 -13 -127
-17 l-113 -7 7 -56 c11 -89 6 -85 110 -77 77 6 93 4 105 -10 21 -25 0 -36 -95
-50 -47 -7 -89 -16 -92 -19 -3 -3 -2 -35 2 -71 l7 -65 119 0 c99 0 121 -3 126
-16 3 -8 0 -21 -6 -27 -19 -19 -137 -38 -268 -44 l-123 -5 0 256 c0 198 3 256
13 257 6 0 32 0 57 0 84 -2 115 -1 165 8 66 11 76 12 103 5z m468 -15 c77 -13
135 -61 153 -124 20 -73 11 -95 -62 -148 -17 -12 -12 -19 58 -87 105 -103 105
-105 50 -130 -26 -12 -54 -18 -64 -15 -10 3 -38 33 -62 67 -91 126 -95 129
-144 106 -23 -10 -25 -16 -25 -79 0 -79 -9 -89 -84 -89 l-45 0 -3 101 c-2 56
0 103 5 106 4 2 7 69 7 148 l0 144 38 4 c75 8 117 7 178 -4z m683 -11 c11 -30
-1 -44 -45 -53 -19 -3 -60 -16 -90 -27 -57 -22 -78 -54 -57 -86 5 -9 55 -41
112 -72 56 -31 109 -66 117 -79 23 -32 23 -104 1 -129 -10 -11 -45 -32 -79
-47 -49 -22 -70 -26 -112 -22 -28 3 -77 0 -109 -5 -33 -6 -62 -7 -67 -2 -5 5
-12 26 -15 46 l-7 37 56 -5 c30 -3 70 -1 88 4 18 6 45 13 60 16 70 16 51 80
-35 116 -29 12 -76 40 -106 62 -53 40 -53 40 -49 88 6 58 30 92 90 125 73 40
118 54 181 54 51 1 59 -2 66 -21z m1829 -11 c2 -16 -2 -29 -10 -31 -155 -46
-188 -64 -188 -102 0 -27 23 -44 138 -104 90 -48 109 -68 112 -121 5 -61 1
-69 -57 -106 -55 -36 -62 -37 -148 -39 -49 -1 -109 -5 -132 -9 -40 -6 -44 -5
-53 20 -21 54 -15 65 35 58 38 -4 94 3 168 24 9 2 22 13 27 24 16 29 -12 63
-73 89 -29 12 -76 40 -106 62 -53 40 -53 40 -49 88 6 60 29 90 101 130 77 43
101 49 172 47 58 -2 60 -3 63 -30z m1817 -1 c0 -26 -5 -31 -35 -39 -96 -24
-150 -50 -157 -75 -3 -14 -2 -32 4 -41 5 -8 56 -40 113 -72 57 -31 110 -65
117 -76 7 -11 14 -41 15 -67 3 -56 -12 -73 -99 -113 -41 -19 -66 -23 -115 -21
-35 1 -87 -1 -115 -6 -51 -8 -53 -7 -63 19 -5 14 -10 35 -10 45 0 17 5 19 44
14 38 -6 94 2 169 23 9 2 22 13 27 24 17 31 -5 57 -83 94 -96 46 -147 92 -147
135 0 55 36 105 103 141 79 42 102 48 172 46 59 -2 60 -2 60 -31z m-6013 -47
c3 -37 11 -76 17 -87 6 -12 11 -73 11 -141 l0 -121 33 -1 c17 -1 66 -2 107 -3
l75 -1 3 -31 c3 -31 3 -31 -56 -38 -78 -9 -292 -9 -300 -1 -16 15 -5 369 14
462 4 23 24 32 64 30 23 -2 25 -7 32 -68z m490 -1 c3 -37 10 -73 15 -80 4 -7
10 -71 13 -143 l5 -130 105 0 105 0 3 -31 3 -32 -63 -6 c-84 -9 -287 -10 -296
-1 -9 9 -7 267 3 383 9 101 17 114 75 109 23 -2 25 -7 32 -69z m-2760 49 l88
-2 0 -31 c0 -37 -12 -44 -81 -44 l-49 0 0 -144 c0 -153 -5 -177 -48 -240 -44
-64 -180 -112 -196 -70 -12 30 -6 39 39 58 25 10 51 28 57 40 7 13 14 86 16
188 l4 167 -73 3 -74 3 -3 37 c-3 36 -2 37 35 41 21 2 74 2 118 0 44 -2 119
-5 167 -6z m7498 -75 c38 -72 114 -162 137 -162 11 0 14 22 12 118 l-1 117 59
3 60 3 7 -41 c3 -22 2 -49 -4 -60 -5 -10 -10 -59 -10 -108 0 -49 -3 -124 -7
-167 l-6 -77 -36 6 c-20 3 -42 14 -49 25 -7 10 -52 59 -100 108 -48 49 -93
101 -101 116 -22 42 -31 32 -31 -33 0 -61 -26 -209 -39 -222 -3 -4 -24 -3 -44
3 l-38 10 0 127 c1 70 0 165 0 211 0 46 4 86 9 90 5 3 41 5 79 3 l68 -3 35
-67z m-479 32 c54 -27 93 -88 109 -174 7 -37 5 -51 -11 -77 -27 -44 -59 -65
-154 -102 -95 -37 -109 -37 -189 -10 -91 32 -99 46 -94 149 6 98 22 137 74
176 64 49 203 68 265 38z m-6216 -69 c29 -76 89 -156 104 -139 5 5 14 27 21
49 6 22 21 65 33 97 21 55 22 56 64 60 l43 3 35 -70 c19 -38 45 -87 58 -108
l23 -38 13 40 c6 22 20 45 30 50 10 6 29 35 41 66 l22 55 55 0 c52 0 55 -1 50
-22 -22 -89 -30 -115 -49 -151 -12 -23 -34 -73 -48 -112 l-27 -70 -55 -3 -55
-3 -41 83 c-23 46 -44 95 -48 111 -3 15 -10 29 -14 32 -7 4 -90 -193 -90 -214
0 -7 -24 -11 -58 -11 l-59 0 -41 88 c-42 90 -87 244 -78 268 3 8 14 14 24 14
13 0 25 -19 47 -75z"/>
<path d="M2827 6804 c-76 -15 -215 -79 -262 -120 -16 -14 -42 -36 -57 -49 -47
-40 -104 -132 -128 -205 -20 -61 -22 -84 -17 -178 5 -104 26 -206 60 -285 14
-33 20 -37 39 -32 32 10 218 128 286 183 192 152 260 260 292 457 16 98 -1
216 -33 237 -18 11 -103 8 -180 -8z"/>
<path d="M5188 5853 c6 -2 18 -2 25 0 6 3 1 5 -13 5 -14 0 -19 -2 -12 -5z"/>
<path d="M5148 5804 c-15 -8 -36 -27 -47 -42 -12 -15 -25 -32 -31 -39 -5 -7
-10 -19 -10 -27 0 -8 -5 -26 -11 -39 -14 -31 1 -91 25 -95 25 -5 66 6 66 18 0
6 -9 10 -20 10 -22 0 -24 3 -11 28 13 26 31 86 31 105 0 9 3 17 8 17 4 0 15
14 24 30 9 17 24 30 33 30 8 0 15 5 15 10 0 14 -40 11 -72 -6z"/>
<path d="M5318 5803 c6 -2 18 -2 25 0 6 3 1 5 -13 5 -14 0 -19 -2 -12 -5z"/>
<path d="M5360 5791 c0 -5 14 -36 30 -69 17 -34 30 -70 30 -81 0 -11 5 -23 10
-26 6 -4 10 -12 9 -18 -3 -27 2 -36 16 -31 21 8 20 96 -2 142 -27 58 -93 116
-93 83z"/>
<path d="M5258 5753 c7 -3 16 -2 19 1 4 3 -2 6 -13 5 -11 0 -14 -3 -6 -6z"/>
<path d="M5235 5710 c-4 -6 8 -10 30 -10 22 0 34 4 30 10 -3 6 -17 10 -30 10
-13 0 -27 -4 -30 -10z"/>
<path d="M5320 5690 c0 -13 28 -25 38 -16 3 4 0 11 -8 16 -20 13 -30 12 -30 0z"/>
<path d="M5180 5680 c0 -5 4 -10 9 -10 6 0 13 5 16 10 3 6 -1 10 -9 10 -9 0
-16 -4 -16 -10z"/>
<path d="M5166 5619 c-16 -16 -17 -19 -4 -19 9 0 18 5 20 12 3 7 32 11 80 12
61 0 81 -3 97 -18 12 -11 24 -17 27 -13 9 9 -5 27 -22 27 -8 0 -14 5 -14 10 0
6 -34 10 -82 9 -68 0 -86 -4 -102 -20z"/>
<path d="M5420 4710 c0 -13 11 -13 30 0 12 8 11 10 -7 10 -13 0 -23 -4 -23
-10z"/>
<path d="M5380 4690 c-8 -5 -12 -12 -9 -15 8 -8 39 5 39 16 0 11 -11 11 -30
-1z"/>
<path d="M6570 790 c0 -19 24 -60 35 -60 13 0 51 38 44 44 -26 22 -79 34 -79
16z"/>
<path d="M6572 534 c-16 -11 -22 -24 -20 -42 4 -36 34 -39 72 -9 26 21 27 25
15 45 -16 26 -36 28 -67 6z"/>
<path d="M5103 739 c3 -39 8 -73 10 -76 3 -2 39 2 82 10 76 15 104 33 105 68
0 27 -25 40 -102 55 -108 21 -102 25 -95 -57z"/>
<path d="M8122 712 c-28 -24 -32 -33 -32 -75 0 -76 13 -84 115 -62 76 16 84
20 101 50 16 31 16 35 1 58 -16 25 -91 57 -131 57 -12 0 -36 -13 -54 -28z"/>
</g>
</svg>
